<svg xmlns="http://www.w3.org/2000/svg" width="150.305" height="68.816" viewBox="0 0 150.305 68.816"><defs><style>.a,.c{fill:#ff8c00;}.b{fill:#0ebcf3;}.c{opacity:0.8;}</style></defs><g transform="translate(-22.8 -20.2)"><path class="a" d="M66.53,96.6a14.13,14.13,0,1,0,14.13,14.13A14.118,14.118,0,0,0,66.53,96.6Zm0,23.774a9.644,9.644,0,1,1,9.644-9.644A9.644,9.644,0,0,1,66.53,120.374Z" transform="translate(-18.536 -47.842)"/><rect class="b" width="4.411" height="48.033" transform="translate(31.622 29.022)"/><rect class="a" width="4.411" height="4.411" transform="translate(27.211 24.611)"/><rect class="a" width="4.411" height="4.411" transform="translate(22.8 29.022)"/><rect class="a" width="4.411" height="4.411" transform="translate(31.622 20.2)"/><path class="c" d="M66.53,96.6a14.13,14.13,0,1,0,14.13,14.13A14.118,14.118,0,0,0,66.53,96.6Zm0,23.774a9.644,9.644,0,1,1,9.644-9.644A9.644,9.644,0,0,1,66.53,120.374Z" transform="translate(-18.536 -47.842)"/><path d="M160.369,96.375l-7.775,21.157c-.262.934-.449,1.607-.523,2.019h-.15c-.3-1.121-.486-1.832-.561-2.093l-7.4-21.12H139.1l10.653,27.4-2.205,5.2c-1.084,2.654-2.766,3.962-4.972,3.962a7.61,7.61,0,0,1-2.579-.486v3.925a10.2,10.2,0,0,0,2.841.336c4.037,0,7.214-2.841,9.457-8.523L164.855,96.3h-4.486Z" transform="translate(-72.827 -47.654)"/><path d="M227.1,106.423a4.6,4.6,0,0,1-2.841.9,3.739,3.739,0,0,1-3.1-1.2,6.362,6.362,0,0,1-.935-3.962V86.687H227.1v-3.7l-7.1.037V74.8H215.81v8.224H211.1V86.8h4.71v16.26c0,5.383,2.392,8.037,7.177,8.037a8.458,8.458,0,0,0,4.074-.86v-3.813Z" transform="translate(-117.913 -34.191)"/><path d="M271.5,67.772a2.793,2.793,0,0,0,.86-2.056,2.877,2.877,0,0,0-.86-2.093,2.82,2.82,0,0,0-2.056-.822,2.736,2.736,0,0,0-2.019.822,2.788,2.788,0,0,0-.822,2.093,2.7,2.7,0,0,0,.822,2.056,2.736,2.736,0,0,0,2.019.822A2.82,2.82,0,0,0,271.5,67.772Zm.112,7.925h-4.448v27.848h4.448Z" transform="translate(-152.668 -26.676)"/><path d="M315.238,96.5H293.633v3.85h15.027L292.1,123.227v1.383h22.989v-3.85h-16.41l16.559-22.951Z" transform="translate(-168.636 -47.779)"/><path d="M385.825,109.359c0-4.037-.972-7.177-2.878-9.457s-4.6-3.4-8.111-3.4a11.374,11.374,0,0,0-8.784,3.925,14.684,14.684,0,0,0-3.551,10.2c0,4.411,1.084,7.85,3.215,10.28a11.311,11.311,0,0,0,8.9,3.663,15.423,15.423,0,0,0,9.308-2.579v-4a13.086,13.086,0,0,1-8.3,2.99,8.306,8.306,0,0,1-6.317-2.43c-1.533-1.607-2.318-3.925-2.392-6.915h18.84v-2.28Zm-18.8-1.383a9.829,9.829,0,0,1,2.617-5.682,6.838,6.838,0,0,1,5.121-2.168,6.09,6.09,0,0,1,4.9,2.056,9.008,9.008,0,0,1,1.794,5.794Z" transform="translate(-212.72 -47.779)"/></g></svg>