<svg xmlns="http://www.w3.org/2000/svg" xmlns:xlink="http://www.w3.org/1999/xlink" width="260.163" height="80" viewBox="0 0 260.163 80"><defs><style>.a{clip-path:url(#d);}.b{fill:#707070;}.c{fill:#ff8c00;}.d{fill:#fff;}.e{filter:url(#a);}</style><filter id="a" x="4.728" y="6.772" width="67.685" height="72.895" filterUnits="userSpaceOnUse"><feOffset dy="3" input="SourceAlpha"/><feGaussianBlur stdDeviation="3" result="b"/><feFlood flood-opacity="0.161"/><feComposite operator="in" in2="b"/><feComposite in="SourceGraphic"/></filter><clipPath id="d"><rect width="260.163" height="80"/></clipPath></defs><g id="c" class="a"><g transform="translate(-30.9 -108.673)"><g transform="translate(121.428 123.216)"><path d="M9.651-10.32V2.133H3.976V-32.209H14.393q5.915,0,9.172,2.754A9.6,9.6,0,0,1,26.822-21.7a10.72,10.72,0,0,1-3.4,8.19q-3.4,3.185-9.2,3.185Zm0-17.195v12.549h3.688a8.156,8.156,0,0,0,5.58-1.7,6.069,6.069,0,0,0,1.916-4.79q0-6.059-7.041-6.059ZM41.239,2.708A12.155,12.155,0,0,1,32.175-.729a12.414,12.414,0,0,1-3.389-9.112q0-6.179,3.532-9.651t9.52-3.473q5.748,0,8.957,3.377T54-10.224a12.852,12.852,0,0,1-3.461,9.4A12.43,12.43,0,0,1,41.239,2.708ZM41.5-18.534a6.343,6.343,0,0,0-5.149,2.275,9.526,9.526,0,0,0-1.892,6.274,8.972,8.972,0,0,0,1.916,6.071A6.435,6.435,0,0,0,41.5-1.7a6.105,6.105,0,0,0,5.041-2.179,9.647,9.647,0,0,0,1.76-6.2,9.793,9.793,0,0,0-1.76-6.251A6.076,6.076,0,0,0,41.5-18.534Zm16.62,19.9V-3.782A11.084,11.084,0,0,0,65-1.411q5.029,0,5.029-2.97a2.34,2.34,0,0,0-.431-1.425,4.115,4.115,0,0,0-1.161-1.042,9.132,9.132,0,0,0-1.724-.814q-.994-.359-2.215-.814a23.452,23.452,0,0,1-2.718-1.269,8.212,8.212,0,0,1-2.012-1.521,5.74,5.74,0,0,1-1.209-1.928,7.1,7.1,0,0,1-.407-2.515,5.812,5.812,0,0,1,.838-3.125,7.283,7.283,0,0,1,2.251-2.275A10.8,10.8,0,0,1,64.445-22.5a14.691,14.691,0,0,1,3.712-.467,16.874,16.874,0,0,1,6.083,1.03v4.862A10.254,10.254,0,0,0,68.3-18.846a7.756,7.756,0,0,0-1.9.216,4.914,4.914,0,0,0-1.449.6,2.945,2.945,0,0,0-.934.922,2.2,2.2,0,0,0-.335,1.185,2.533,2.533,0,0,0,.335,1.341,3.045,3.045,0,0,0,.994.97,8.584,8.584,0,0,0,1.581.766q.922.347,2.119.754a30.966,30.966,0,0,1,2.838,1.317,9.59,9.59,0,0,1,2.143,1.521,5.961,5.961,0,0,1,1.365,1.964,6.668,6.668,0,0,1,.479,2.646,6.049,6.049,0,0,1-.862,3.257,7.186,7.186,0,0,1-2.3,2.3,10.762,10.762,0,0,1-3.317,1.353,17.231,17.231,0,0,1-3.963.443A16.7,16.7,0,0,1,58.123,1.367Zm23.3.766V-32.209h10.9a12.876,12.876,0,0,1,7.891,2.179,6.774,6.774,0,0,1,2.91,5.676,8.1,8.1,0,0,1-1.652,5.077A8.916,8.916,0,0,1,96.9-16.211v.1a8.963,8.963,0,0,1,5.664,2.622,7.986,7.986,0,0,1,2.119,5.76A8.65,8.65,0,0,1,101.206-.6a13.748,13.748,0,0,1-8.765,2.73ZM87.1-27.635v9.771h3.688a7.083,7.083,0,0,0,4.658-1.4,4.862,4.862,0,0,0,1.688-3.963q0-4.407-5.891-4.407Zm0,14.345V-2.417h4.862A7.393,7.393,0,0,0,96.884-3.89,5.039,5.039,0,0,0,98.62-7.949q0-5.341-7.4-5.341Zm44.568-9.1L120.6,6.061q-3.449,7.616-9.675,7.616a11.6,11.6,0,0,1-2.922-.311V8.743a7.77,7.77,0,0,0,2.395.431,4.942,4.942,0,0,0,4.646-3.065L116.7,2.085,106.954-22.39h6.155l5.843,17.818q.1.335.431,1.772h.12q.12-.551.431-1.724l6.131-17.866Zm16.74,24.26a9.629,9.629,0,0,1-4.287.814q-7.137,0-7.137-6.849V-18.032h-4.1V-22.39h4.1v-5.676l5.556-1.581v7.256h5.867v4.359h-5.867V-5.77a4.832,4.832,0,0,0,.79,3.113,3.281,3.281,0,0,0,2.634.934,3.82,3.82,0,0,0,2.443-.814ZM171.3-20.067,158.06-2.2h13.2V2.133H150.277V.05l13.531-18.105H151.57V-22.39H171.3Z" transform="translate(-3.976 32.209)"/><path class="b" d="M.813.29V-1.623a2.955,2.955,0,0,0,.613.422,4.737,4.737,0,0,0,.754.316,5.939,5.939,0,0,0,.8.2,4.247,4.247,0,0,0,.734.07,3.133,3.133,0,0,0,1.745-.39A1.285,1.285,0,0,0,6.03-2.138a1.235,1.235,0,0,0-.191-.691A2.007,2.007,0,0,0,5.3-3.365,5.621,5.621,0,0,0,4.5-3.829q-.465-.223-1-.465-.57-.3-1.062-.617A4.571,4.571,0,0,1,1.583-5.6a2.892,2.892,0,0,1-.57-.855A2.785,2.785,0,0,1,.806-7.574a2.578,2.578,0,0,1,.355-1.371A3,3,0,0,1,2.1-9.9a4.3,4.3,0,0,1,1.324-.562,6.286,6.286,0,0,1,1.515-.184,6.115,6.115,0,0,1,2.561.4v1.835A4.091,4.091,0,0,0,5.046-9.1a4.394,4.394,0,0,0-.824.078,2.449,2.449,0,0,0-.734.258,1.589,1.589,0,0,0-.527.461,1.129,1.129,0,0,0-.2.679,1.285,1.285,0,0,0,.156.648,1.672,1.672,0,0,0,.457.5,4.668,4.668,0,0,0,.734.441q.433.215,1,.465.586.3,1.105.64a5.209,5.209,0,0,1,.914.742,3.26,3.26,0,0,1,.625.9,2.649,2.649,0,0,1,.23,1.128A2.8,2.8,0,0,1,7.639-.725a2.769,2.769,0,0,1-.925.953A4.122,4.122,0,0,1,5.374.759a7.551,7.551,0,0,1-1.6.164A6.817,6.817,0,0,1,3.082.88Q2.672.837,2.243.755a7.722,7.722,0,0,1-.812-.2A2.571,2.571,0,0,1,.813.29ZM16.6-2.771H11.153a2.3,2.3,0,0,0,.683,1.71,2.542,2.542,0,0,0,1.792.6,3.952,3.952,0,0,0,2.351-.765V.236A5.37,5.37,0,0,1,13.09.923,3.577,3.577,0,0,1,10.321-.167a4.357,4.357,0,0,1-1-3.065,4.261,4.261,0,0,1,1.105-3.042,3.615,3.615,0,0,1,2.745-1.175,3.152,3.152,0,0,1,2.538,1.054,4.377,4.377,0,0,1,.9,2.928ZM14.855-4.052a2.335,2.335,0,0,0-.461-1.519,1.54,1.54,0,0,0-1.249-.543,1.758,1.758,0,0,0-1.324.57,2.6,2.6,0,0,0-.668,1.492ZM20.149.735H18.33V-11.1h1.82Zm4.178,0h-1.82V-11.1h1.82Zm12.893,0H35.463V-.514h-.031A2.646,2.646,0,0,1,33,.923a2.558,2.558,0,0,1-1.847-.64,2.24,2.24,0,0,1-.668-1.695q0-2.265,2.608-2.64l2.374-.336q0-1.71-1.624-1.71a3.858,3.858,0,0,0-2.577.984V-6.7a5.62,5.62,0,0,1,2.921-.75q3.03,0,3.03,2.983ZM35.471-3.193l-1.679.234a2.661,2.661,0,0,0-1.175.379,1.107,1.107,0,0,0-.394.972,1.064,1.064,0,0,0,.363.832,1.406,1.406,0,0,0,.972.324,1.794,1.794,0,0,0,1.371-.582A2.063,2.063,0,0,0,35.471-2.5ZM46.552.735H44.741V-3.771q0-2.241-1.585-2.241a1.731,1.731,0,0,0-1.367.621,2.3,2.3,0,0,0-.539,1.566V.735H39.43v-8h1.82v1.328h.031a2.85,2.85,0,0,1,2.593-1.515,2.415,2.415,0,0,1,1.991.847,3.8,3.8,0,0,1,.687,2.448Zm9.137-8L52.081,2.016Q50.957,4.5,48.926,4.5a3.783,3.783,0,0,1-.953-.1V2.891a2.534,2.534,0,0,0,.781.141,1.612,1.612,0,0,0,1.515-1L50.808.72,47.63-7.261h2.007l1.905,5.81q.031.109.141.578h.039q.039-.18.141-.562l2-5.826Zm11.956,0-2.358,8h-1.9l-1.453-5.42a3.432,3.432,0,0,1-.109-.7H61.8a3.2,3.2,0,0,1-.141.687L60.078.735H58.219l-2.351-8h1.874L59.2-1.5a3.414,3.414,0,0,1,.094.687h.055a3.712,3.712,0,0,1,.125-.7l1.617-5.748h1.7l1.437,5.787a4.048,4.048,0,0,1,.1.687h.055a3.645,3.645,0,0,1,.117-.687l1.421-5.787Zm8.45,8H74.283V-3.638q0-2.374-1.585-2.374a1.658,1.658,0,0,0-1.343.687,2.735,2.735,0,0,0-.547,1.757v4.3h-1.82V-11.1h1.82v5.17h.031a2.861,2.861,0,0,1,2.593-1.515q2.663,0,2.663,3.256Zm8.973-3.506H79.617a2.3,2.3,0,0,0,.683,1.71,2.542,2.542,0,0,0,1.792.6,3.952,3.952,0,0,0,2.351-.765V.236a5.37,5.37,0,0,1-2.889.687A3.577,3.577,0,0,1,78.785-.167a4.357,4.357,0,0,1-1-3.065,4.261,4.261,0,0,1,1.105-3.042,3.615,3.615,0,0,1,2.745-1.175A3.152,3.152,0,0,1,84.17-6.395a4.377,4.377,0,0,1,.9,2.928ZM83.318-4.052a2.335,2.335,0,0,0-.461-1.519,1.54,1.54,0,0,0-1.249-.543,1.758,1.758,0,0,0-1.324.57,2.6,2.6,0,0,0-.668,1.492Zm8.114-1.484a1.5,1.5,0,0,0-.945-.258,1.617,1.617,0,0,0-1.343.726,3.248,3.248,0,0,0-.539,1.976V.735H86.794v-8h1.812v1.648h.031a2.786,2.786,0,0,1,.816-1.316,1.842,1.842,0,0,1,1.23-.472,1.527,1.527,0,0,1,.75.148Zm7.911,2.764H93.892a2.3,2.3,0,0,0,.683,1.71,2.542,2.542,0,0,0,1.792.6,3.952,3.952,0,0,0,2.351-.765V.236a5.37,5.37,0,0,1-2.889.687A3.577,3.577,0,0,1,93.061-.167a4.357,4.357,0,0,1-1-3.065,4.261,4.261,0,0,1,1.105-3.042,3.615,3.615,0,0,1,2.745-1.175,3.152,3.152,0,0,1,2.538,1.054,4.377,4.377,0,0,1,.9,2.928ZM97.594-4.052a2.335,2.335,0,0,0-.461-1.519,1.54,1.54,0,0,0-1.249-.543,1.758,1.758,0,0,0-1.324.57,2.6,2.6,0,0,0-.668,1.492Z" transform="translate(-0.046 52.281)"/></g><g transform="translate(32.061 111.112)"><path class="c" d="M20.945,0H54.013A20.945,20.945,0,0,1,74.958,20.945V54.616A20.945,20.945,0,0,1,54.013,75.561H20.945A20.945,20.945,0,0,1,0,54.616V20.945A20.945,20.945,0,0,1,20.945,0Z" transform="translate(0 0)"/><g transform="translate(12.567 10.333)"><g transform="translate(0 0)"><g class="e" transform="matrix(1, 0, 0, 1, -13.73, -12.77)"><path class="d" d="M452.416,31.468a9.116,9.116,0,1,0,9.116,9.116A9.116,9.116,0,0,0,452.416,31.468Zm39.289-4.531a9.116,9.116,0,1,0-15.673,0,27.515,27.515,0,0,1,0,27.348,9.116,9.116,0,1,0,15.673,0A27.514,27.514,0,0,1,491.705,26.937Zm-27.721-.906h0a4.356,4.356,0,0,0-1.013,6.237,13.7,13.7,0,0,1,.107,16.526,4.356,4.356,0,0,0,1.013,6.237h0a4.34,4.34,0,0,0,5.864-.96,22.369,22.369,0,0,0-.107-27.135,4.383,4.383,0,0,0-5.864-.906Z" transform="translate(-429.57 -0.39)"/></g></g></g></g></g></g></svg>